<mxfile host="app.diagrams.net" modified="2023-05-03T10:30:09.114Z" agent="Mozilla/5.0 (Windows NT 10.0; Win64; x64) AppleWebKit/537.36 (KHTML, like Gecko) Chrome/112.0.0.0 Safari/537.36" etag="fN5ef7D7ZBmJdiSwiNV3" version="21.2.4" type="device">
  <diagram name="페이지-1" id="7W_jVCKI8kf-8Cn6dkQ7">
    <mxGraphModel dx="1909" dy="998" grid="1" gridSize="10" guides="1" tooltips="1" connect="1" arrows="1" fold="1" page="1" pageScale="1" pageWidth="827" pageHeight="1169" math="0" shadow="0">
      <root>
        <mxCell id="0" />
        <mxCell id="1" parent="0" />
        <mxCell id="-HEaHktX36FjvcJuVjfq-3" style="edgeStyle=orthogonalEdgeStyle;rounded=0;orthogonalLoop=1;jettySize=auto;html=1;exitX=0.5;exitY=1;exitDx=0;exitDy=0;entryX=0.5;entryY=0;entryDx=0;entryDy=0;" edge="1" parent="1" source="-HEaHktX36FjvcJuVjfq-1" target="-HEaHktX36FjvcJuVjfq-2">
          <mxGeometry relative="1" as="geometry" />
        </mxCell>
        <mxCell id="-HEaHktX36FjvcJuVjfq-1" value="&lt;font style=&quot;font-size: 20px;&quot;&gt;카드를 뽑는다.&lt;/font&gt;" style="rounded=0;whiteSpace=wrap;html=1;" vertex="1" parent="1">
          <mxGeometry x="180" y="140" width="200" height="110" as="geometry" />
        </mxCell>
        <mxCell id="-HEaHktX36FjvcJuVjfq-7" value="" style="edgeStyle=orthogonalEdgeStyle;rounded=0;orthogonalLoop=1;jettySize=auto;html=1;" edge="1" parent="1" source="-HEaHktX36FjvcJuVjfq-2" target="-HEaHktX36FjvcJuVjfq-4">
          <mxGeometry relative="1" as="geometry" />
        </mxCell>
        <mxCell id="-HEaHktX36FjvcJuVjfq-9" style="edgeStyle=orthogonalEdgeStyle;rounded=0;orthogonalLoop=1;jettySize=auto;html=1;entryX=0;entryY=0.5;entryDx=0;entryDy=0;" edge="1" parent="1" source="-HEaHktX36FjvcJuVjfq-2">
          <mxGeometry relative="1" as="geometry">
            <mxPoint x="520" y="425" as="targetPoint" />
          </mxGeometry>
        </mxCell>
        <mxCell id="-HEaHktX36FjvcJuVjfq-2" value="&lt;font style=&quot;font-size: 19px;&quot;&gt;족보에 있는지 없는지 체크한다.&lt;/font&gt;" style="rounded=0;whiteSpace=wrap;html=1;shape=rhombus;perimeter=rhombusPerimeter;" vertex="1" parent="1">
          <mxGeometry x="150" y="320" width="250" height="180" as="geometry" />
        </mxCell>
        <mxCell id="-HEaHktX36FjvcJuVjfq-4" value="&lt;font style=&quot;font-size: 20px;&quot;&gt;Dictionary.Containskey()&lt;/font&gt;" style="rounded=0;whiteSpace=wrap;html=1;" vertex="1" parent="1">
          <mxGeometry x="120" y="610" width="310" height="130" as="geometry" />
        </mxCell>
      </root>
    </mxGraphModel>
  </diagram>
</mxfile>
